<svg xmlns="http://www.w3.org/2000/svg" viewBox="0 0 148.32 53.92"><defs><style>.cls-1{fill:none;stroke:#92278f;stroke-miterlimit:10;stroke-width:1.63px;}.cls-2{fill:#92278f;}</style></defs><title>Asset 1</title><g id="Layer_2" data-name="Layer 2"><g id="Layer_1-2" data-name="Layer 1"><rect class="cls-1" x="0.82" y="0.82" width="146.68" height="52.29"/><path class="cls-2" d="M29.46,13a.92.92,0,0,0-.55.57,4.33,4.33,0,0,0-.15,1.34V27.34a4,4,0,0,0,.12,1.15.72.72,0,0,0,.43.48,3,3,0,0,0,1,.12h1.2a3.36,3.36,0,0,0,2-.68,5.29,5.29,0,0,0,1.55-1.92A9.26,9.26,0,0,0,36,23.62h.56c0,.56-.07,1.27-.07,2.15q0,2.09.17,3.87Q35,29.57,31,29.57q-5.31,0-8,.07v-.49A3.66,3.66,0,0,0,24.23,29a.89.89,0,0,0,.5-.57A4.69,4.69,0,0,0,24.87,27V14.9a4.7,4.7,0,0,0-.14-1.34.89.89,0,0,0-.51-.57A3.74,3.74,0,0,0,23,12.8v-.49q1.24.07,3.86.07t3.85-.07v.49A4.36,4.36,0,0,0,29.46,13Z"/><path class="cls-2" d="M52.65,13a7.33,7.33,0,0,1,3,3.05,9.92,9.92,0,0,1,1.08,4.76,10,10,0,0,1-1.11,4.78,8,8,0,0,1-3.07,3.23A8.74,8.74,0,0,1,48.08,30a9.45,9.45,0,0,1-4.55-1.05,7.28,7.28,0,0,1-3-3.05,10,10,0,0,1-1.07-4.76,10.07,10.07,0,0,1,1.1-4.78,8,8,0,0,1,3.07-3.23A8.77,8.77,0,0,1,48.11,12,9.42,9.42,0,0,1,52.65,13Zm-7,.48a7.37,7.37,0,0,0-1.57,3A16.41,16.41,0,0,0,43.5,21a14.7,14.7,0,0,0,.62,4.48,7.21,7.21,0,0,0,1.69,3,3.3,3.3,0,0,0,2.36,1.05,3.16,3.16,0,0,0,2.37-1.09,7.33,7.33,0,0,0,1.58-3,16.38,16.38,0,0,0,.56-4.48,14.68,14.68,0,0,0-.62-4.48,7.2,7.2,0,0,0-1.69-3A3.32,3.32,0,0,0,48,12.41,3.14,3.14,0,0,0,45.63,13.5Z"/><path class="cls-2" d="M79.51,13a.89.89,0,0,0-.51.57,4.68,4.68,0,0,0-.14,1.34V27A4.68,4.68,0,0,0,79,28.39a.88.88,0,0,0,.51.57,3.73,3.73,0,0,0,1.2.19v.49q-1.36-.07-3.85-.07T73,29.64v-.49A4.3,4.3,0,0,0,74.27,29a.92.92,0,0,0,.55-.57A4.37,4.37,0,0,0,75,27V14.31L69.07,29.68h-.39L62.07,13.89V25.63a10.79,10.79,0,0,0,.15,2.13,1.48,1.48,0,0,0,.64,1,3.77,3.77,0,0,0,1.59.42v.49q-.94-.07-2.65-.07-1.35,0-2.13.07v-.49a2.42,2.42,0,0,0,1.18-.41,1.58,1.58,0,0,0,.52-.94,9.58,9.58,0,0,0,.14-1.88v-11a4.72,4.72,0,0,0-.14-1.34.89.89,0,0,0-.51-.57,3.78,3.78,0,0,0-1.2-.19v-.49q.78.07,2.13.07,2.27,0,3.87-.07l4.94,11.9,4.52-11.83h1.73q2.49,0,3.85-.07v.49A3.78,3.78,0,0,0,79.51,13Z"/><path class="cls-2" d="M97.14,29.64q-1.66-.07-5.61-.07-5.31,0-8,.07v-.49A3.66,3.66,0,0,0,84.75,29a.88.88,0,0,0,.5-.57A4.68,4.68,0,0,0,85.39,27V14.9a4.68,4.68,0,0,0-.14-1.34.89.89,0,0,0-.51-.57,3.74,3.74,0,0,0-1.18-.19v-.49q2.67.07,8,.07,3.61,0,5.12-.07-.17,2-.17,3.62a14.73,14.73,0,0,0,.07,1.66H96a9.23,9.23,0,0,0-.75-2.8,3.29,3.29,0,0,0-1.31-1.48,4,4,0,0,0-2-.44H91a3.62,3.62,0,0,0-1.09.12.74.74,0,0,0-.47.48,3.8,3.8,0,0,0-.12,1.15v6.06h.79a2.26,2.26,0,0,0,2-1A5.94,5.94,0,0,0,93,17.45h.56q-.08,1.21-.08,2.31v1.17q0,1.24.14,3.48h-.56q-.48-3.24-3-3.24h-.79v6.17a3.81,3.81,0,0,0,.13,1.15.73.73,0,0,0,.47.48,3.59,3.59,0,0,0,1.09.12h1.21a3.52,3.52,0,0,0,3.42-2.14,10.39,10.39,0,0,0,.88-3.07H97q-.07.79-.07,2.06Q97,27.92,97.14,29.64Z"/><path class="cls-2" d="M106.73,13a.91.91,0,0,0-.55.57A4.33,4.33,0,0,0,106,14.9V27.34a4,4,0,0,0,.12,1.15.72.72,0,0,0,.43.48,3,3,0,0,0,1,.12h1.2a3.36,3.36,0,0,0,2-.68,5.3,5.3,0,0,0,1.55-1.92,9.26,9.26,0,0,0,.87-2.86h.56q-.07.84-.07,2.15,0,2.09.17,3.87-1.66-.07-5.61-.07-5.31,0-8,.07v-.49a3.66,3.66,0,0,0,1.19-.19.88.88,0,0,0,.5-.57,4.68,4.68,0,0,0,.14-1.34V14.9a4.68,4.68,0,0,0-.14-1.34.89.89,0,0,0-.51-.57,3.74,3.74,0,0,0-1.18-.19v-.49q1.24.07,3.86.07t3.85-.07v.49A4.35,4.35,0,0,0,106.73,13Z"/><path class="cls-2" d="M122.85,13a.89.89,0,0,0-.51.57,4.72,4.72,0,0,0-.14,1.34V27a4.72,4.72,0,0,0,.14,1.34.88.88,0,0,0,.51.57,3.71,3.71,0,0,0,1.19.19v.49q-1.33-.07-3.71-.07-2.62,0-3.86.07v-.49a3.66,3.66,0,0,0,1.19-.19.88.88,0,0,0,.5-.57,4.68,4.68,0,0,0,.14-1.34V14.9a4.68,4.68,0,0,0-.14-1.34.89.89,0,0,0-.51-.57,3.74,3.74,0,0,0-1.18-.19v-.49q1.24.07,3.86.07,2.38,0,3.71-.07v.49A3.77,3.77,0,0,0,122.85,13Zm.43-6.39a1.42,1.42,0,0,1,.71.19,1.28,1.28,0,0,1,.51.52,1.2,1.2,0,0,1,.13.56,1.28,1.28,0,0,1-.21.71,1.66,1.66,0,0,1-.6.55,3.81,3.81,0,0,1-.74.32l-1.16.32a30.48,30.48,0,0,0-3.19,1l-.18-.3A23.2,23.2,0,0,0,121,8.13q.54-.57.84-.85a3.27,3.27,0,0,1,.69-.48A1.55,1.55,0,0,1,123.28,6.6Z"/><path class="cls-2" d="M44.33,39a.48.48,0,0,1,.25.39.36.36,0,0,1-.11.27.38.38,0,0,1-.26.11.45.45,0,0,1-.21,0l-.18-.13-.12-.1a.24.24,0,0,0-.13,0q-.26,0-.52.65a8,8,0,0,0-.42,1.56,10.37,10.37,0,0,0-.17,1.62.14.14,0,0,1-.1.13.65.65,0,0,1-.27,0c-.18,0-.28,0-.3-.07v-3a2,2,0,0,0-.12-.88.37.37,0,0,0-.32-.22.73.73,0,0,0-.37.11,1.44,1.44,0,0,0-.36.3h0s0,0-.06,0,0,0,0-.06a2.23,2.23,0,0,1,.62-.58,1.24,1.24,0,0,1,.64-.2.52.52,0,0,1,.49.32,2.9,2.9,0,0,1,.15,1.21v1.31a8.31,8.31,0,0,1,.54-2q.35-.82.82-.82A.87.87,0,0,1,44.33,39Z"/><path class="cls-2" d="M50.44,42.5a.11.11,0,0,1,.07,0s0,0,0,.06a3.59,3.59,0,0,1-.62.68.92.92,0,0,1-.57.22q-.65,0-.64-.91l0-1.42a4.85,4.85,0,0,1-1,1.72,1.78,1.78,0,0,1-1.3.65.89.89,0,0,1-.7-.3,1.46,1.46,0,0,1-.28-1,3.73,3.73,0,0,1,.38-1.61,4,4,0,0,1,1-1.33,1.93,1.93,0,0,1,1.27-.53,1.46,1.46,0,0,1,.48.08,1.12,1.12,0,0,1,.41.24.66.66,0,0,0,.23-.4s0,0,.07,0l.05,0,0,0,0,3.62c0,.44.1.66.31.66s.45-.17.74-.53Zm-2-3a.85.85,0,0,0-.63-.25,1.31,1.31,0,0,0-.85.33,2.23,2.23,0,0,0-.62.92,3.54,3.54,0,0,0-.23,1.31,1.81,1.81,0,0,0,.18.91.59.59,0,0,0,.54.29,1.26,1.26,0,0,0,.91-.46,3.78,3.78,0,0,0,1-2.38A.9.9,0,0,0,48.43,39.47Z"/><path class="cls-2" d="M59.39,42.5a.12.12,0,0,1,.09,0s0,0,0,.06a4,4,0,0,1-.63.68.91.91,0,0,1-.57.22q-.63,0-.63-.91v-2q0-1.28-.64-1.28a1,1,0,0,0-.76.49,3.9,3.9,0,0,0-.56,1.4,9.9,9.9,0,0,0-.21,2.15.14.14,0,0,1-.1.13.64.64,0,0,1-.27,0c-.18,0-.28,0-.3-.07V40.55a2.32,2.32,0,0,0-.17-1,.51.51,0,0,0-.47-.31.94.94,0,0,0-.74.48,3.88,3.88,0,0,0-.55,1.37,9.39,9.39,0,0,0-.21,2.1v.09a.14.14,0,0,1-.1.13.68.68,0,0,1-.28,0c-.18,0-.28,0-.3-.07l0-.81,0-2.61c0-.44-.11-.66-.33-.66s-.44.18-.77.55h0a.09.09,0,0,1-.08,0,.08.08,0,0,1,0-.07,3.29,3.29,0,0,1,.65-.68,1,1,0,0,1,.61-.22.51.51,0,0,1,.45.21,1.28,1.28,0,0,1,.16.67v1.5a4.36,4.36,0,0,1,.69-1.79,1.39,1.39,0,0,1,1.14-.64.8.8,0,0,1,.72.36,2.12,2.12,0,0,1,.22,1.15v1a4.35,4.35,0,0,1,.68-1.83,1.4,1.4,0,0,1,1.15-.65.79.79,0,0,1,.72.37,2.29,2.29,0,0,1,.24,1.15v2c0,.44.11.66.32.66s.43-.17.74-.53Z"/><path class="cls-2" d="M61.26,43.26a1.9,1.9,0,0,1-.69-.81A2.9,2.9,0,0,1,60.62,40a2.21,2.21,0,0,1,.81-.89,2.14,2.14,0,0,1,1.16-.32A1.86,1.86,0,0,1,64,39.4a2.24,2.24,0,0,1,.54,1.6,2.87,2.87,0,0,1-.31,1.36,2.19,2.19,0,0,1-.82.89,2.16,2.16,0,0,1-1.11.3A1.86,1.86,0,0,1,61.26,43.26Zm2.31-.46a2,2,0,0,0,.37-1.28,3.31,3.31,0,0,0-.21-1.18,2.26,2.26,0,0,0-.6-.9,1.26,1.26,0,0,0-.86-.34,1.19,1.19,0,0,0-.95.46,1.9,1.9,0,0,0-.38,1.26A3.46,3.46,0,0,0,61.17,42a2.31,2.31,0,0,0,.61.92,1.28,1.28,0,0,0,.88.35A1.12,1.12,0,0,0,63.57,42.8Z"/><path class="cls-2" d="M66.22,43.3a.62.62,0,0,1-.39-.53.25.25,0,0,1,.1-.21.37.37,0,0,1,.45,0,1.24,1.24,0,0,1,.21.22,1.75,1.75,0,0,0,.37.36.86.86,0,0,0,.49.13.69.69,0,0,0,.5-.17.67.67,0,0,0,.17-.49,1,1,0,0,0-.28-.7,4.27,4.27,0,0,0-.8-.62,4.78,4.78,0,0,1-.8-.62A.94.94,0,0,1,66,40a.93.93,0,0,1,.45-.81,1.75,1.75,0,0,1,1-.3,1.79,1.79,0,0,1,.8.17q.34.17.34.42a.24.24,0,0,1-.09.22.36.36,0,0,1-.23.08.47.47,0,0,1-.26-.07,1.39,1.39,0,0,1-.25-.21,1.7,1.7,0,0,0-.33-.26.78.78,0,0,0-.41-.09.62.62,0,0,0-.4.11.43.43,0,0,0-.14.36.83.83,0,0,0,.25.6,5.71,5.71,0,0,0,.78.63,6,6,0,0,1,.85.69,1,1,0,0,1,.28.72,1.16,1.16,0,0,1-.19.62,1.41,1.41,0,0,1-.54.49,1.64,1.64,0,0,1-.8.19A1.79,1.79,0,0,1,66.22,43.3Z"/><path class="cls-2" d="M78.87,42.5a.11.11,0,0,1,.07,0s0,0,0,.06a4.15,4.15,0,0,1-.64.68.91.91,0,0,1-.57.21.56.56,0,0,1-.49-.23,1.1,1.1,0,0,1-.15-.68l.06-6.49a2.15,2.15,0,0,0-.61-.59,1.35,1.35,0,0,0-.76-.25,1.09,1.09,0,0,0-1,.8,5.72,5.72,0,0,0-.29,2.32l0,.71q.53,0,1.28-.07a.09.09,0,0,1,.1.1.48.48,0,0,1-.12.25.27.27,0,0,1-.23.12c-.34-.05-.68-.09-1-.11l.14,4.27c0,.13,0,.31,0,.55a6.41,6.41,0,0,1-.12,1.4,1.29,1.29,0,0,1-.39.73,1.16,1.16,0,0,1-.76.22,1.27,1.27,0,0,1-.66-.15.42.42,0,0,1-.24-.36.33.33,0,0,1,.1-.25.39.39,0,0,1,.29-.1.43.43,0,0,1,.3.09,1,1,0,0,1,.19.26,1.05,1.05,0,0,0,.15.21.27.27,0,0,0,.2.07c.11,0,.19-.08.24-.23a3.87,3.87,0,0,0,.07-.92q0-.47,0-1.26l-.14-4a1.2,1.2,0,0,0-.07-.43.3.3,0,0,0-.21-.16,2.59,2.59,0,0,0-.56,0s0,0,0-.07,0-.07,0-.07a1.22,1.22,0,0,0,.64-.11.52.52,0,0,0,.16-.45,4.83,4.83,0,0,1,.56-2.69,1.92,1.92,0,0,1,1.68-.78,2.62,2.62,0,0,1,1.34.33.6.6,0,0,0,.26-.54,0,0,0,0,1,0,0h0l.05,0a0,0,0,0,1,0,0l-.07,7.49c0,.44.1.66.32.66s.44-.17.73-.53Z"/><path class="cls-2" d="M80.89,43.26a1.9,1.9,0,0,1-.69-.81A2.9,2.9,0,0,1,80.25,40a2.21,2.21,0,0,1,.81-.89,2.14,2.14,0,0,1,1.16-.32,1.86,1.86,0,0,1,1.42.58,2.24,2.24,0,0,1,.54,1.6,2.87,2.87,0,0,1-.31,1.36,2.19,2.19,0,0,1-.82.89,2.16,2.16,0,0,1-1.11.3A1.85,1.85,0,0,1,80.89,43.26Zm2.31-.46a2,2,0,0,0,.37-1.28,3.31,3.31,0,0,0-.21-1.18,2.26,2.26,0,0,0-.6-.9,1.26,1.26,0,0,0-.86-.34,1.19,1.19,0,0,0-.95.46,1.9,1.9,0,0,0-.38,1.26A3.46,3.46,0,0,0,80.8,42a2.31,2.31,0,0,0,.61.92,1.28,1.28,0,0,0,.88.35A1.12,1.12,0,0,0,83.2,42.8Z"/><path class="cls-2" d="M88.7,39a.48.48,0,0,1,.25.39.36.36,0,0,1-.11.27.38.38,0,0,1-.26.11.45.45,0,0,1-.21,0l-.18-.13-.12-.1a.24.24,0,0,0-.13,0q-.26,0-.52.65A8,8,0,0,0,87,41.7a10.37,10.37,0,0,0-.17,1.62.14.14,0,0,1-.1.13.65.65,0,0,1-.27,0c-.18,0-.28,0-.3-.07v-3a2,2,0,0,0-.12-.88.37.37,0,0,0-.32-.22.73.73,0,0,0-.37.11,1.44,1.44,0,0,0-.36.3h0s0,0-.06,0,0,0,0-.06a2.23,2.23,0,0,1,.62-.58,1.24,1.24,0,0,1,.64-.2.52.52,0,0,1,.49.32,2.9,2.9,0,0,1,.15,1.21v1.31a8.31,8.31,0,0,1,.54-2q.35-.82.82-.82A.87.87,0,0,1,88.7,39Z"/><path class="cls-2" d="M94.82,42.5a.11.11,0,0,1,.07,0s0,0,0,.06a3.59,3.59,0,0,1-.62.68.92.92,0,0,1-.57.22q-.65,0-.64-.91l0-1.42a4.84,4.84,0,0,1-1,1.72,1.78,1.78,0,0,1-1.3.65.89.89,0,0,1-.7-.3,1.46,1.46,0,0,1-.28-1,3.73,3.73,0,0,1,.38-1.61,4,4,0,0,1,1-1.33,1.93,1.93,0,0,1,1.27-.53,1.46,1.46,0,0,1,.48.08,1.13,1.13,0,0,1,.41.24.66.66,0,0,0,.23-.4s0,0,.07,0l.05,0,0,0,0,3.62c0,.44.1.66.31.66s.45-.17.74-.53Zm-2-3a.85.85,0,0,0-.63-.25,1.31,1.31,0,0,0-.85.33,2.23,2.23,0,0,0-.62.92,3.54,3.54,0,0,0-.23,1.31,1.81,1.81,0,0,0,.18.91.59.59,0,0,0,.54.29,1.26,1.26,0,0,0,.91-.46,3.78,3.78,0,0,0,1-2.38A.9.9,0,0,0,92.81,39.47Z"/><path class="cls-2" d="M96.44,43.26a1.07,1.07,0,0,1-.16-.68l.07-6.29c0-.36-.1-.54-.34-.54a1.42,1.42,0,0,0-.58.18h0a.08.08,0,0,1-.08-.06s0-.06,0-.08l1.49-.72h0a.13.13,0,0,1,.09,0s0,0,0,.06l-.06,7.19c0,.44.11.66.32.66s.43-.17.74-.53h0a.1.1,0,0,1,.07,0s0,0,0,.06a3.89,3.89,0,0,1-.62.68.91.91,0,0,1-.57.21A.58.58,0,0,1,96.44,43.26Z"/><path class="cls-2" d="M102.73,42.76a.12.12,0,0,1,.07,0s0,0,0,.06a2.47,2.47,0,0,1-1.68.68,2,2,0,0,1-1.11-.3,1.89,1.89,0,0,1-.69-.8,2.51,2.51,0,0,1-.23-1.06,2.6,2.6,0,0,1,.31-1.24,2.52,2.52,0,0,1,.87-.95,2.21,2.21,0,0,1,1.23-.35,1.31,1.31,0,0,1,.72.17.51.51,0,0,1,.26.45q0,.5-.77.92a5.78,5.78,0,0,1-1.88.58,2.67,2.67,0,0,0,.46,1.59,1.46,1.46,0,0,0,1.25.61,1.83,1.83,0,0,0,1.17-.38Zm-2.58-3.17a2.35,2.35,0,0,0-.31,1.2q1.83-.32,1.83-1.19a.4.4,0,0,0-.17-.35.81.81,0,0,0-.47-.12A1,1,0,0,0,100.15,39.59Z"/><path class="cls-2" d="M104.29,43.3a.62.62,0,0,1-.39-.53.25.25,0,0,1,.1-.21.37.37,0,0,1,.45,0,1.24,1.24,0,0,1,.21.22,1.74,1.74,0,0,0,.37.36.86.86,0,0,0,.49.13.69.69,0,0,0,.5-.17.67.67,0,0,0,.17-.49,1,1,0,0,0-.28-.7,4.27,4.27,0,0,0-.8-.62,4.78,4.78,0,0,1-.8-.62A.94.94,0,0,1,104,40a.93.93,0,0,1,.45-.81,1.75,1.75,0,0,1,1-.3,1.79,1.79,0,0,1,.8.17q.34.17.34.42a.24.24,0,0,1-.09.22.36.36,0,0,1-.23.08.47.47,0,0,1-.26-.07,1.38,1.38,0,0,1-.25-.21,1.7,1.7,0,0,0-.33-.26.78.78,0,0,0-.41-.09.62.62,0,0,0-.4.11.43.43,0,0,0-.14.36.83.83,0,0,0,.25.6,5.71,5.71,0,0,0,.78.63,6,6,0,0,1,.85.69,1,1,0,0,1,.28.72,1.16,1.16,0,0,1-.19.62,1.41,1.41,0,0,1-.54.49,1.64,1.64,0,0,1-.8.19A1.79,1.79,0,0,1,104.29,43.3Z"/></g></g></svg>